<?xml version="1.0" encoding="utf-8"?>
<!-- Generator: Adobe Illustrator 24.0.2, SVG Export Plug-In . SVG Version: 6.00 Build 0)  -->
<svg version="1.1" id="Layer_1" xmlns="http://www.w3.org/2000/svg" xmlns:xlink="http://www.w3.org/1999/xlink" x="0px" y="0px"
	 width="346.6px" height="546.8px" viewBox="0 0 346.6 546.8" style="enable-background:new 0 0 346.6 546.8;" xml:space="preserve"
	>
<style type="text/css">
	.st0{fill-rule:evenodd;clip-rule:evenodd;fill:#F7941D;}
</style>
<path class="st0" d="M108.2,4.8c-25.7,10.4-63,36-75.1,51.4C11.7,83.8,0,155.8,9.6,202.1c1.1,4.9,0.1,6.3-4.3,6.3
	c-6.8,0-7,2.4-1,10.8c2.5,3.6,10.4,10.1,10.2,14.5c2.9,19.5,3,28.2,7,52.1c7.4,24.6,8.1,42.8,10.3,65.4c2.5,26.6,13.9,54.4,27.5,67
	c1.7,1.5,7.8,10.8,13.6,20.7c9.3,15.7,13.6,26.7,27.8,69.7c8.8,26.6,25.6,34.9,76.1,38c53,3.3,106.5-40.7,106.5-87.6
	c0-11.7,2.4-18.6,13.1-38.7c7.1-13.3,13.9-30.6,15.2-38.2c1.3-7.6,3.5-19.6,5-26.4c1.5-7,2.8-20.7,2.8-30.9
	c0.1-14.7,1.3-19.3,5.7-23.4c3.1-2.8,5.6-7.1,5.6-9.6c0-2.5,2.4-12.1,5.3-21.1c6.1-19,12.8-73.1,10-81.8c-1.8-6-8.3-7.4-15.3-3.1
	c-3.5,2.2-4.7-3.1-8.6-34.1c-4.4-34.5-8.1-50.3-18.5-79.2c-8.9-24.6-37.7-48.5-77.2-64.1C202.8-0.8,127.6-3.1,108.2,4.8 M46.4,120.6
	c-1.3,4-13.3,3.5-13.3-0.7c0-2.4,2.5-3.3,7.1-2.8C43.9,117.5,46.9,119.1,46.4,120.6 M116,369.2c1,6.7-7.9,11.7-16.7,9.5
	c-6.5-1.8-6.4-3.1,2.2-11C109.8,360,114.7,360.4,116,369.2 M171.1,91.5c2.2,0,3.3,1.3,2.4,2.9c-1,1.5-3.9,2.5-6.4,2.1
	c-2.5-0.6-5,1.4-5.6,4c-0.7,3.5,0.3,4.3,3.5,3.2c2.9-1.1,4.3-0.1,4.3,3.1c0,3.8-1.5,4.4-7,3.1c-4.2-1.1-7-0.6-7,1.3
	c0,1.7-1.3,2.2-2.8,1.3c-1.5-1-2.8-3.9-2.8-6.4c0-6.1,14.6-22.1,16.1-17.7C166.6,90.2,168.9,91.5,171.1,91.5 M230.8,352.2
	c10.4,6.1,9.3,12.2-2.6,15.3c-11,2.8-10.3,3.3-12.4-9.7C214,345.7,217.6,344.3,230.8,352.2 M339,193.2c0,0.8-2.5,6.4-5.6,12.5
	c-4.7,9.2-5,11-1.4,11c2.9,0,4.2,2.9,4.2,9.6v9.6l-8.3-4.7c-10-5.7-10.7-12.9-2.8-28.5C329.6,193.6,339,187.3,339,193.2
	 M332.3,241.7c5,0,4.9,7.8-0.3,16.7c-2.2,3.8-4,9.6-4,12.9c-0.1,3.2-1.9,7.4-4.2,9.2c-3.5,2.9-4,1.7-3.8-8.6
	c0.1-6.7-0.7-16.7-1.8-22.4c-3.2-14.7,0.3-22.5,6-14C326.6,238.9,330.2,241.7,332.3,241.7 M265.1,66.7c-0.7,1.3,1.9,5.7,5.8,10
	c4.2,4.4,6.7,9.9,5.8,12.7c-0.7,2.8,0.7,6.3,3.3,7.8c4,2.4,4,3.1,0.4,5.4c-6.1,4.2-8.3,3.6-8.3-2.1c0-7.1-8.1-17.9-8.2-11
	c-0.1,2.6-1.3,4.9-2.8,4.9c-4.7,0-11-8.5-9.5-12.7c0.8-2.2,0-6.1-1.9-8.5c-3.1-3.5-3.1-4.7-0.1-6.5
	C254.4,63.7,266.9,63.7,265.1,66.7 M253.9,426.9c2.6,6.8,4,53.1-33.6,69.5c-20.9,4.4-21.7,3.9-21.7-11.4c0-12.4,0.8-14.2,7.8-17.5
	c9.5-4.6,34.8-30.3,38.2-38.8C247.5,421.3,251.5,420.6,253.9,426.9 M237.3,390.9c-5,4.6-6.7,8.3-5.4,12.1c1.1,3.6,0.3,6.1-2.4,7.2
	c-2.2,0.8-4.9,4.7-5.8,8.5c-1.5,5.8-2.9,6.8-8.6,5.4c-4.6-1.3-6.8-0.6-6.8,1.8c0,3.5-10,11.4-15.3,12.2c-1.5,0.1-2.9-1.7-4.2,0.8
	c-3.6,1.4-18.4,1.9-20.6,0.7c-1.8-1.1-4.1-2.9-10.6-2.1c-4.4-0.3-10.3-2.6-13.1-5.1c-2.6-2.4-5.7-4.4-6.8-4.4
	c-7.5,0-17-19.3-9.5-19.6c9,1.8,21.2,7,23.4,7.2c0.6,0.1,16,0.6,18,0.6c2,0,13.5,1.5,36.1-5.7c5-1.6,32.4-13,23.4-12.1
	c-3.9,0.4-14.8,2.8-35.6,10.9c-1.8,0.7-12.3,3.3-17.2,3.1c-11.5-0.5-27-0.8-29.9-1.8c-1.8-0.6-11.3-2.6-25.3-6.1
	c-13.2-4.7-14.9-6.4-11-10.3c2.2-2.2,5.3-1.5,11.3,2.8c4.4,3.2,28.6,8.9,38.8,8.6c16.5-0.6,30.2-3.3,37.3-7.5
	c7-4.2,33.5-13.3,38.2-13.5l8.6-0.3L237.3,390.9 M253.5,396.7c1.4,6.8-4.3,15-25.9,37c-34.6,35.3-54.8,32.4-99.7,4.1
	c-16.1-8.1-16.6-6.4-15.2-2.5c0.8,2.1-0.1,2.8,0.1,3c3.4,3.8,11.4,8.1,19.5,15.7c12.6,9.3,15,8.9,20.4,12l6.3,3l-2.4,12.6
	c-1.9,9.5-3.2,17.9-2.6,18.6c0.4,0.8-2.9,1.7-7.4,1.8c-24.4-2.4-63.5-53-36.6-62.8c2.9,0,3.6-1.5,2.2-4.9c-1.1-2.6-3.2-8.6-4.9-13.2
	c-1.5-4.6-3.9-9.6-5.3-11c-3.6-4-2.8-7.6,1.5-6.5c2.1,0.4,8.1,6.3,13.2,12.9c5.1,6.7,12.5,13.8,16.3,15.7c24.9,12.8,27,13.3,44.8,12
	c27.3-2.2,56.3-21.1,65.2-42.4C247.6,391,251.8,389.1,253.5,396.7 M118.9,30.6c6.4,2.2,8.8,4.7,8.8,9.6c0,4,2.1,7.1,5.6,8.2
	c6.4,2.1,6.7,3.8,1.9,10c-4.7,6.3-2.6,33.1,2.5,33.1c7.2,0,4.9,22.7-3.2,30.3l-7.1,6.7l1.4-7.4c0.7-4,0.1-7.4-1.3-7.4
	c-1.5,0-2.6-1.3-2.6-2.8c0-1.5,1.9-2.8,4.2-2.8c7.4,0,3.8-8.8-5-12c-4-1.5-4.7-0.8-3.3,3.3c2.1,7-4,10.8-7.5,4.9
	c-1.8-3.3-3.9-3.9-7.2-2.2c-9.2,4.7-11.8,0.3-4.6-7.4c3.8-4.2,6.8-8.8,6.7-10.3c0-1.5-1.7-0.6-3.8,2.1c-1.9,2.6-4.6,3.9-5.7,2.8
	c-2.8-2.9-9.9,7.5-9.9,14.5c0,7.1-9.9,16.1-16.3,14.7c-3.2-0.6-4.3-3.2-3.8-8.5c0.6-5.1-0.6-7.6-3.5-7.9
	c-10.1-0.7-11.3-1.4-10.4-5.8c1.1-7-4.3-6-6.5,1.1c-1.4,4.3-2.5,4.9-4,2.2c-2.8-4.3-0.4-11.5,4.6-14.6c2.1-1.3,3.9-5,4-8.3
	c0.3-4.6,0.8-4.2,2.1,2.1c1,4.4,3.1,7.6,4.6,7c2.9-1.3,3.3-2.8,3.9-13.6c0.3-6.4,0.6-6.4,4-1.7c2.4,3.3,4.4,4,5.6,2.2
	c1-1.7,0-4.9-2.4-7.2c-6-6-5.1-8.2,2.5-6.3c4.6,1.1,7.2,0.3,8.3-2.8c1.3-3.5,0.6-4-3.2-2.6c-3.2,1.3-3.9,1-2.1-0.8
	c1.5-1.4,5.3-3.2,8.3-3.8c3.1-0.7,5.1-2.9,4.7-5c-0.7-2.6,0.1-2.9,2.8-0.8c4,3.2,13.8,3.8,12,0.7c-1-1.4,4.4-16.4,5.8-16.5
	C110,27.6,114,29,118.9,30.6 M81.8,74.9c-1,1.5-0.8,2.8,0.3,2.8s-0.3,2.5-3.1,5.6c-2.6,2.9-5.8,4.9-7.1,4.2
	c-1.1-0.8-1.5,1.1-0.7,4.2c0.8,3.1,1.9,5.6,2.5,5.6c2.6,0,11.8-11.1,13.5-16.1C89,75,84.7,70,81.8,74.9 M115.4,38.3
	c-4,4.4-4.2,6.4-1.1,13.1c2.8,6.1,2.8,8.1,0.1,8.9c-1.9,0.7-3.5,4.3-3.5,8.2c0,5-1.1,6.5-4.2,5.4c-2.2-1-4.2-0.4-4.2,1.1
	c0,1.4,2.4,2.6,5.3,2.6c3.3,0,5.8,2.6,7.1,7.1c2.2,9,8.2,7.5,9.3-2.5c0.7-5.3-0.3-7.4-3.6-7.4c-2.6,0-3.8,1.3-2.5,3.2
	c1.3,1.9,0.7,2.5-1.3,1.3c-3.9-2.5-2.8-10.7,2.4-17c3.1-3.6,3.2-5.7,0.4-10c-2.5-4-2.5-7-0.3-11.1C123.6,33.4,121.4,31.9,115.4,38.3
	 M167,33c-0.7,7.9-0.3,8.6,3.2,5.3c2.4-2.1,3.6-4.7,2.9-5.8c-0.7-1.1,1.4-2.1,4.6-2.1c3.8,0,5.1,1.1,3.9,3.2
	c-1.3,1.9-0.7,2.5,1.1,1.3c1.7-1,2.4-3.6,1.5-6c-1.7-4.3,1.3-5.1,8.8-2.2c3.8,1.4,3.9,2.2,1,4c-2.9,1.8-2.6,2.4,1.1,2.5
	c2.6,0,4.9,1.3,4.9,2.8c0,5.1,4.9,2.8,6.4-3.1c1.8-6.8,7.5-4.6,7.5,2.9c0,2.8,1.9,5.8,4.2,6.7c2.4,1,4.2,0.6,4.2-0.7
	c0-1.4,1.9-3.2,4.3-4c3.3-1.4,4,0.3,3.6,7.4c-0.4,5,0.4,10.7,1.7,12.8c1.5,2.5,0.7,3.3-2.9,2.6c-2.8-0.6-5.8-4.2-6.7-7.9
	c-1.4-6.1-1.9-6.3-3.6-1.8c-2.6,6.8-0.8,9,9.6,12.7c4.9,1.7,8.1,2.4,7.1,1.4c-2.6-2.8,3.2-12.2,7.6-12.2c6,0,7.4,8.1,2.6,15.3
	c-2.4,3.6-4.6,7.6-4.9,8.9c-0.1,1.3-1.9,2.1-3.9,1.8c-1.9-0.1-3.5,0.7-3.5,2.1c0,1.4,1.9,2.5,4.2,2.5c4.9,0,5.6,7.1,1,10
	c-4,2.5-13.5-8.6-13.5-15.8c0-2.9-1.8-5.3-4.2-5.3c-11.8,0-1.1,23.1,13.3,28.6c6.8,2.6,6.1,10.1-0.8,8.3c-3.1-0.8-5.6-2.6-5.6-3.9
	c0-1.4-1.8-2.5-4-2.5s-5.4-2.5-7.1-5.6c-3.6-6.8-7.9-7.1-10.3-1c-1.1,3.1,0.8,6.7,6,10.8c4.9,3.9,6.5,6.8,4.6,8.1
	c-1.7,1-3.1,0.6-3.1-1.1c0-1.5-2.1-2.9-4.7-2.9s-8.5-4-12.8-9l-7.9-9l1.8,11.8c1.5,9.2,1,11.8-2.1,11.8c-6.3,0-7.4-2.6-4.6-11.8
	c4.7-16.7-20-30.3-31-17.2c-3.9,4.7-15.3-13.1-12.7-19.9c3.6-9.5,14.6-3.1,13.2,7.6c-0.1,1,1.5,2.5,3.9,3.3c2.2,1,4,0.4,4-1.1
	c0-1.4,3.2-2.6,7-2.6c3.9,0,7-1.3,7-2.8c0-1.5-1.8-2.8-4-2.8c-2.1,0-4.4-2.8-5.1-6.3c-1-5.1-1.3-4.9-1.5,1.7
	c-0.4,6.7-1.1,7.5-4.4,4.7c-2.2-1.8-3.2-5.3-2.4-7.6c1.4-3.5-0.1-4.2-8.2-3.2c-8.3,1-9.6,0.4-7.8-3.1c1.5-2.6,0.8-5.7-1.5-7.9
	c-2.1-1.9-3.9-2.6-3.9-1.5c0,1.1-1.4,0.7-3.2-1.1c-5.1-5.1,13.1-18.8,21.1-15.7c2.5,1,5-0.1,6-2.9C162.9,18.7,168,23.4,167,33
	 M194.1,36.1c-1.8,7-1.7,16.5,0.1,16.5c3.6,0,5.8-12.1,2.8-15.2C195.6,36.1,194.2,35.4,194.1,36.1 M203.8,59.8
	c1,2.4,1.7,6.1,1.7,8.3c0,2.1,1.9,3.9,4.3,3.9c3.8,0,3.8-0.8-0.1-8.3C205.2,55,200.9,52.2,203.8,59.8 M151.3,43.6
	c1.1,2.6,2.1,6.4,2.2,8.3c0,2.4,1.7,2.1,5.1-1.1c4.9-4.3,4.9-4.7,0.3-8.2C152.1,37.5,148.9,37.9,151.3,43.6 M177.1,46.4
	c-1.4,6.4,3.5,20.2,9.5,26.8c3.6,3.9,4,6.5,1.9,10.4c-3.5,6.5,2.8,9.7,10.8,5.4c2.9-1.5,6-2.2,6.8-1.5c0.7,0.8-0.1-3.1-1.8-8.6
	c-1.7-5.4-3.5-8.1-3.9-5.7c-0.6,2.2-2.6,3.5-4.7,2.6c-4.6-1.7-16.3-20.4-12.8-20.4c1.3,0,1.7-3.2,1-7
	C182.4,40.4,178.5,39.3,177.1,46.4 M276.1,117.3c2.1,3.5,4.7,10.6,5.8,16c1.1,5.3,3.8,12.7,6,16.3c4.9,7.5,5.8,20.3,2.8,33.1
	c-1.9,8.1-1.5,9.3,4.9,11.7c7,2.6,7.2,3.6,7.2,25.9c0,12.7,1.8,36.6,4,53.1c4.2,31.1,2.5,43.5-5.8,43.5c-2.1,0-3.8,1.4-3.8,3.1
	c0,1.8,2.5,2.5,5.6,1.7c6-1.5,7.6,11.8,3.9,31c-2.4,11.3-4.2,43.1-27.8,74.7l-8.8,11.8l-1.7-14.9c-1-8.2-1-22.4,0-31.4l1.7-16.5
	l-21.4-18.4c-29.2-25-71.6-36-45-11.7c14.7,13.6-0.3,35.7-31.1,46c-23.8,7.9-60.6-23.8-44.2-38c4.2-3.6,7.6-9.5,7.8-12.9
	c0-3.5,1.8-8.8,4.2-11.8c2.2-2.9,4-8.3,4-12c0-3.5,1.9-9.5,4.4-13.2c4.2-6.4,4.2-7.1-0.1-8.6c-4-1.7-3.9-2.2,1.1-5.8
	c7.2-5,7.4-9.2,0.1-9.2c-3.1,0-5.6-1.3-5.6-2.8s-1.4-2.8-3.1-2.8c-1.7,0-5.1-2.5-7.6-5.4c-12.2-14.6-94.5-3.9-86.5,11.3
	c6.5,12.2,30.4,16.7,34.3,6.4c1.8-4.7,47.5-5.7,50.3-1.1c3.8,6-24.2,14.5-49.1,14.9c-13.2,0.3-23.5,1.4-22.8,2.5
	c0.7,1.1,2.5,2.1,4,2.1c1.5,0,7.4,2.1,13.1,4.6c15.6,7,19.3,7.1,31.8,1c6.3-3.1,12.9-5.6,14.9-5.6c1.8,0,3.9-1.7,4.7-3.8
	c0.8-2.1,3.9-4.4,7-5.3c6.4-1.7,4.6,9.2-3.3,20.7c-2.5,3.5-4.4,9.6-4.4,13.8c0,7.1-6.1,13.3-22.7,23.2c-31,18.5-37.4,25.9-36,41.7
	c1.1,12.2,5.4,14.9,5,3.1c-0.1-6.5,1.5-11.8,4.9-14.9c4.9-4.7,5-4.6,3.1,2.1c-2.9,10.3-2.4,16.8,2.2,21.8c6.1,6.8,8.5,19.3,4.7,23.9
	c-1.9,2.2-2.6,5.4-1.7,7c1.1,1.7,0.7,2.9-0.8,2.9c-1.4,0-4-3.5-5.8-7.6c-7.6-18.8-22.7-45.3-24.7-44.1c-4.6,2.8-14.2-26-14.5-43.1
	c-0.1-5.3-2.6-21.4-5.7-35.9c-8.5-39.9-13.2-91.5-11-119.6c0.3-2.4-0.4-10-1.3-17.2c-1.3-9.3-0.4-15.4,2.8-21.7
	c2.5-4.9,3.9-10.7,2.9-13.1c-1-2.6,0.4-4.6,4-5.6c3.1-0.8,5.6-2.6,5.6-3.9c0-1.4,1.9-2.5,4.2-2.5c2.4,0,4.2,1.3,4.2,2.8
	c0,1.5,1.3,2.8,2.9,2.8c1.5,0,8.1,2.5,14.5,5.6c12,5.7,24.1,7.2,28.6,3.3c2.4-1.9,0.3-1.4,16-6c4.7-1.3,12.5-1.4,20.8,2.8
	c6.6,4,18.9,3.2,21.4,2.3c29.8-13.7,28.3-11,34.9-11l20.1,4.5c22.2-0.7,32.8-3.1,32.8-7.2c0-2.2,26.3-16.1,31.3-16.3
	C271.3,111,273.9,113.8,276.1,117.3 M51.6,315.8c-3.2,3.3-1.9,7,1.7,4.7c1.9-1.3,9.2-3.1,16-4l12.5-1.8l-14.2-0.3
	C59.8,314.1,52.7,314.8,51.6,315.8 M265.4,300.1c-4.7,1.7,3.1,7.4,10.7,7.8c1.4,0,3.3,1.5,4.4,3.2c1.4,2.4,2.8,2.1,5-0.6
	C289.5,305.8,273.1,297.3,265.4,300.1 M240.2,252c-7.2,0.7-29.9,4.4-47.5,7.9c-6.4,1.3-12.9,12.9-10.6,19c0.8,2.2,0.1,6.7-1.7,10
	c-3.5,6.4,0.8,22.2,5.8,22.2c1.4,0,4.2,4,6.4,9c3.1,7.2,4.2,8.1,5.7,4.3c1.3-2.8-0.7-9.3-5.1-16.8c-9.9-16.7-7.8-20.6,6.7-13.2
	c3.1,1.5,8.2,4.2,11.5,5.8c7.4,3.8,32.8,5.3,32.1,1.8c-0.3-1.3,7.6-7,17.5-12.2c21.1-11.5,21-11.5,18.4-14c-1.1-1.1-2.8-0.8-3.9,0.8
	c-9.9,14.5-78.7,18.5-83.1,4.9c-1.4-3.9,33.1-7.4,48.5-5c21.1,3.5,54.5-15.8,40.3-23.4C276.7,250.7,258.3,250.2,240.2,252"/>
</svg>
